<svg xmlns="http://www.w3.org/2000/svg" width="640" height="185" viewBox="0 0 640 185" role="img" aria-label="Pinned repository: Aljudan">
  <defs>
    <linearGradient id="rp-card" x1="0" y1="0" x2="0" y2="1">
      <stop offset="0" stop-color="#141414"/>
      <stop offset="1" stop-color="#0a0a0a"/>
    </linearGradient>
  </defs>

  <rect x="3" y="3" width="634" height="179" rx="14" fill="url(#rp-card)" stroke="#333333" stroke-width="1.5"/>
  <rect x="3" y="3" width="10" height="179" rx="5" fill="#FF0033"/>
  <rect x="3" y="3" width="634" height="179" rx="14" fill="none" stroke="#FF0033" stroke-width="1" opacity="0.35"/>

  <!-- ikon gamepad (pengganti glyph ▓) -->
  <g transform="translate(34,39)">
    <rect x="0" y="0" width="27" height="16" rx="8" fill="#FF0033"/>
    <rect x="5" y="7" width="7" height="2.4" rx="1.2" fill="#0a0a0a"/>
    <rect x="7.3" y="4.7" width="2.4" height="7" rx="1.2" fill="#0a0a0a"/>
    <circle cx="18.5" cy="5.5" r="1.8" fill="#0a0a0a"/>
    <circle cx="22.5" cy="9.5" r="1.8" fill="#0a0a0a"/>
  </g>

  <g font-family="ui-monospace, 'Cascadia Code', Consolas, monospace">
    <text x="70" y="53" font-size="22" font-weight="bold" fill="#FF4D5E">Aljudan</text>
    <rect x="560" y="28" width="52" height="24" rx="12" fill="#FF0033"/>
    <text x="586" y="45" text-anchor="middle" font-size="12" font-weight="bold" fill="#ffffff">PIN</text>

    <text x="36" y="88" font-size="14" fill="#999999">Black &amp; Red Arcade — my GitHub profile README</text>
    <text x="36" y="110" font-size="14" fill="#999999">Snake, Pac-Man &amp; mini-games. Dibuat sambil belajar.</text>

    <circle cx="44" cy="145" r="8" fill="#FF0033"/>
    <text x="60" y="150" font-size="14" fill="#cccccc">Markdown</text>

    <text x="220" y="150" font-size="14" fill="#cccccc">★ 0</text>

    <!-- ikon fork vektor (pengganti glyph ⑂ yg tofu) + angka -->
    <g transform="translate(296,136)" stroke="#cccccc" stroke-width="1.7" fill="none">
      <circle cx="0" cy="0" r="2.6"/>
      <circle cx="13" cy="0" r="2.6"/>
      <circle cx="0" cy="14" r="2.6"/>
      <path d="M0 2.6 V 11.4"/>
      <path d="M13 2.6 C13 9.5 0 6.5 0 11.4"/>
    </g>
    <text x="318" y="150" font-size="14" fill="#cccccc">0</text>

    <text x="604" y="150" text-anchor="end" font-size="13" fill="#666666">▶ open repo</text>
  </g>
</svg>
